PathFileType	4	(X/Y/Z)	C:/Users/opensim2020/Desktop/walking_exp_matlab/subject01_walking11_straight_02.trc	
DataRate	CameraRate	NumFrames	NumMarkers	Units	OrigDataRate	OrigDataStartFrame	OrigNumFrames	
100.00	100.00	5	44	mm	100.00	1974	266	
Frame#	Time	LFHD			RFHD			LBHD			RBHD			C7			T10			CLAV			STRN			RBAK			LSHO			LUPA			LELB			LFRM			LWRA			LWRB			LFIN			RSHO			RUPA			RELB			RFRM			RWRA			RWRB			RFIN			LASI			RASI			LPSI			RPSI			LTHI			LKNE			LTIB			LANK			LHEE			LTOE			RTHI			RKNE			RTIB			RANK			RHEE			RTOE			*39			*40			*41			*42			*43			
		X1	Y1	Z1	X2	Y2	Z2	X3	Y3	Z3	X4	Y4	Z4	X5	Y5	Z5	X6	Y6	Z6	X7	Y7	Z7	X8	Y8	Z8	X9	Y9	Z9	X10	Y10	Z10	X11	Y11	Z11	X12	Y12	Z12	X13	Y13	Z13	X14	Y14	Z14	X15	Y15	Z15	X16	Y16	Z16	X17	Y17	Z17	X18	Y18	Z18	X19	Y19	Z19	X20	Y20	Z20	X21	Y21	Z21	X22	Y22	Z22	X23	Y23	Z23	X24	Y24	Z24	X25	Y25	Z25	X26	Y26	Z26	X27	Y27	Z27	X28	Y28	Z28	X29	Y29	Z29	X30	Y30	Z30	X31	Y31	Z31	X32	Y32	Z32	X33	Y33	Z33	X34	Y34	Z34	X35	Y35	Z35	X36	Y36	Z36	X37	Y37	Z37	X38	Y38	Z38	X39	Y39	Z39	X40	Y40	Z40	X41	Y41	Z41	X42	Y42	Z42	X43	Y43	Z43	X44	Y44	Z44	

34	0.330	-1028.06262	708.09436	1667.86157	-1137.70679	672.05231	1671.32080	-1059.58569	821.10931	1626.59216	-1176.00537	787.12817	1629.93042	-1089.38794	857.47046	1430.91248	-1094.82715	894.40112	1136.75916	-1083.81274	715.16400	1361.57153	-1072.03735	673.73413	1206.41345	-1162.09424	912.23438	1232.74207	-925.49976	780.22650	1397.97473	-836.52075	800.68488	1215.80566	-828.48969	796.61127	1063.29822	-796.86029	735.00409	968.73877	-804.08191	628.91589	878.36511	-784.16327	681.94843	859.11127	-765.00854	617.91064	807.55414	-1236.88391	777.94312	1387.28503	-1330.31702	850.68713	1189.80518	-1331.71753	857.75665	1065.08545	-1366.70691	837.60608	947.28833	-1359.50989	758.12091	829.05908	-1392.88586	806.24426	830.88483	-1393.31775	770.99780	751.33551	-970.15027	738.33569	924.85565	-1184.96558	708.75287	933.85266	-1049.71680	915.10553	941.37311	-1194.08716	894.04938	944.94458	-936.52014	826.62958	595.21936	-956.11670	863.31519	463.54953	-957.39874	971.99402	307.39127	-1017.61066	1071.66833	113.57962	-1072.25244	1122.03577	100.92692	-1007.39020	945.21210	38.63096	-1252.28723	699.27521	609.73816	-1221.34192	649.14032	462.08054	-1234.33704	660.70880	286.46591	-1192.17126	643.23212	79.32472	-1144.69849	689.15594	36.59829	-1181.55347	501.59174	52.71340	-1117.71606	687.00647	1705.73535	-3101.80640	1973.14905	1023.50891	-3140.64941	2012.49475	1022.05298						 
35	0.340	-1030.20056	700.66254	1668.53528	-1139.83716	664.42517	1671.80005	-1061.84961	813.64539	1627.31897	-1178.21057	779.54053	1630.42371	-1091.49268	850.07324	1431.34473	-1096.31946	886.41864	1137.11182	-1085.50403	707.59924	1362.23132	-1073.43408	665.85309	1207.26404	-1163.75793	904.34540	1232.95374	-927.36304	773.03070	1398.75793	-839.00244	794.68530	1216.54126	-830.67371	790.25293	1064.29492	-798.69427	729.62976	969.27289	-805.49817	624.17603	878.05945	-785.87183	677.47968	859.23871	-766.27484	613.85889	807.22675	-1238.63696	770.17218	1387.48462	-1332.03699	842.30389	1189.70691	-1333.35608	849.04169	1065.05054	-1368.07031	828.95251	947.25488	-1360.57129	749.69263	828.87323	-1394.02625	797.86572	830.78296	-1394.52344	762.69385	751.17712	-971.35461	729.93188	925.28363	-1186.06543	700.35406	934.68536	-1050.54016	906.62421	941.86407	-1194.84839	885.74475	945.90387	-937.21759	817.62610	595.58679	-956.13916	854.19177	463.89227	-956.84601	966.04608	309.62946	-1016.93079	1069.01270	117.40176	-1071.67334	1119.48584	106.13899	-1007.31494	944.83746	38.68916	-1252.62415	690.77045	610.42157	-1222.41370	642.63538	461.66031	-1235.41284	656.64685	285.94308	-1192.74939	641.61548	78.98309	-1145.28296	688.32770	37.32293	-1181.50769	500.24539	49.83310	-1119.95483	679.41467	1706.24731	-3101.99072	1973.11304	1023.35809	-3140.65283	2012.50720	1021.92346						 
36	0.350	-1032.37573	693.18970	1669.26331	-1141.93555	656.84674	1672.31323	-1064.02942	806.26959	1628.16626	-1180.42090	771.93494	1630.98206	-1093.50415	842.83441	1431.78040	-1097.79297	878.53925	1137.59180	-1087.24463	700.03406	1362.98682	-1074.76416	658.01282	1208.17810	-1165.37537	896.48755	1233.20398	-929.29694	765.84393	1399.65515	-841.11353	788.29596	1217.29797	-832.41504	784.90546	1065.08923	-800.60681	724.40582	969.87311	-807.07458	619.64807	877.75128	-787.55603	673.10675	859.38513	-767.79315	609.98175	806.75995	-1240.56702	762.40845	1387.97742	-1333.66663	833.90320	1189.73181	-1334.89185	840.26501	1065.19995	-1369.21375	820.08527	947.32513	-1361.60291	741.24951	828.86609	-1395.10925	789.18353	830.82581	-1395.54883	754.44318	751.21539	-972.69141	721.51453	925.81787	-1187.48547	691.93396	935.48828	-1051.29529	898.19153	942.59430	-1195.55737	877.46777	946.95300	-937.92108	808.15454	595.98785	-955.94244	844.77466	464.24222	-956.65643	959.06281	311.78436	-1016.24469	1065.99890	121.65157	-1070.98608	1116.32629	111.80289	-1007.25732	944.39417	38.83252	-1253.11572	681.93683	610.81580	-1223.35791	636.38239	461.26804	-1236.49182	653.05444	285.28363	-1193.14685	640.28674	78.70522	-1145.75293	687.68799	37.85785	-1181.96216	498.97873	47.51694	-1122.14709	671.89795	1706.76575	-3102.05273	1972.93225	1023.60626	-3140.92529	2012.43152	1022.09662						 
37	0.360	-1034.46179	685.66608	1670.08838	-1144.11230	649.15167	1672.86536	-1066.22021	798.57635	1628.96594	-1182.62061	764.28076	1631.65710	-1095.46118	835.49341	1432.30005	-1099.23877	870.68030	1138.18396	-1088.85413	692.56433	1363.87842	-1076.11768	650.17993	1209.15698	-1167.00195	888.61719	1233.59009	-931.11407	758.74823	1400.63147	-843.09924	781.93604	1218.34106	-834.73309	778.81598	1066.16602	-802.54224	719.30920	970.40417	-808.65613	615.24701	877.44049	-789.37634	668.98547	859.43774	-769.29053	606.34772	806.42377	-1242.43396	754.68481	1388.52454	-1335.24634	825.33032	1189.88757	-1336.44983	831.42859	1065.55627	-1370.81396	811.52075	947.77844	-1362.68933	732.79449	829.00836	-1396.31177	780.60175	831.08679	-1396.52588	746.11566	751.36926	-974.18445	713.04047	926.43188	-1188.99365	683.70551	936.23328	-1052.11499	889.74542	943.56110	-1196.42004	869.28766	948.05719	-938.54370	798.25378	596.36823	-955.62878	834.45691	464.52716	-956.24957	951.73749	314.16895	-1015.40588	1062.36426	126.08698	-1070.27026	1112.60962	117.91836	-1007.18475	943.95898	38.90520	-1254.08093	673.30438	611.04218	-1224.13733	630.36029	460.57599	-1237.55652	649.53845	284.98398	-1193.36353	639.26013	78.34467	-1146.08228	687.35236	38.22394	-1182.14819	498.21002	46.18024	-1124.37415	664.28754	1707.34949	-3101.94116	1973.10168	1023.47345	-3140.70703	2012.55774	1022.09991						 
38	0.370	-1036.61475	677.96613	1670.87708	-1146.29944	641.35931	1673.42053	-1068.39331	791.07263	1630.12451	-1184.69873	756.54816	1632.37195	-1097.38892	828.12482	1432.94543	-1100.59436	862.77271	1138.83826	-1090.60120	685.09894	1364.89404	-1077.49048	642.46979	1210.28333	-1168.66113	880.73535	1234.05054	-932.95245	751.69745	1401.59937	-844.87494	775.53900	1219.36841	-836.74011	773.36700	1067.10083	-804.48022	714.45544	970.93665	-810.35443	611.14227	877.13220	-791.14960	664.98853	859.60547	-771.08832	602.82123	805.89813	-1244.17749	746.97314	1389.20227	-1336.77588	816.89618	1190.14539	-1337.98682	822.58551	1066.01294	-1372.05627	802.55939	948.23596	-1363.75708	724.28821	829.33417	-1397.47729	772.20294	831.54340	-1397.33679	737.71710	751.47675	-975.73535	704.72815	927.14465	-1190.57178	675.59253	936.95941	-1053.05896	881.39227	944.66675	-1197.48547	861.13562	949.12799	-939.07861	787.98248	596.65088	-955.37518	823.41986	464.62781	-955.44006	943.92059	316.77982	-1014.44781	1058.27539	130.73703	-1069.51672	1108.28186	124.46619	-1007.03735	943.57507	38.90206	-1255.08875	665.50031	611.24945	-1224.87793	624.84961	460.29150	-1238.25989	645.93976	284.72430	-1193.47498	638.47449	78.13447	-1146.39844	687.12170	38.39249	-1181.49280	497.45810	44.61155	-1126.66394	656.41888	1707.97144	-3101.98657	1973.16992	1023.35718	-3140.71851	2012.59558	1022.18457						 
